<?xml version="1.0" standalone="no"?> <!DOCTYPE svg PUBLIC "-//W3C//DTD SVG 20010904//EN" "http://www.w3.org/TR/2001/REC-SVG-20010904/DTD/svg10.dtd"> <svg version="1.0" xmlns="http://www.w3.org/2000/svg" width="600.000000pt" height="564.000000pt" viewBox="0 0 600.000000 564.000000" preserveAspectRatio="xMidYMid meet"> <g transform="translate(0.000000,564.000000) scale(0.100000,-0.100000)" fill="#0689cb" stroke="none"> <path d="M791 4543 c14 -16 59 -66 99 -113 154 -178 216 -242 260 -268 l45 -27 1035 -5 1035 -5 85 -30 c192 -67 356 -226 420 -407 123 -351 -57 -707 -420 -830 -63 -21 -83 -22 -595 -28 -525 -5 -530 -5 -572 -27 -136 -73 -156 -263 -37 -361 20 -17 56 -35 80 -41 28 -7 204 -11 502 -11 l460 0 323 -505 c559 -872 508 -798 570 -828 51 -24 65 -25 265 -30 116 -3 216 -2 224 3 14 9 14 10 -103 195 -39 61 -84 128 -102 150 -17 22 -119 180 -227 350 -108 171 -260 411 -338 535 -78 123 -144 229 -147 236 -2 7 21 26 55 44 84 44 212 149 279 228 118 139 188 270 231 432 33 126 38 369 9 495 -66 286 -239 537 -475 693 -107 70 -204 113 -341 150 l-96 27 -1275 3 -1274 3 25 -28z"/> </g> </svg>